{
	"asset":{
		"generator":"Khronos glTF Blender I/O v4.2.69",
		"version":"2.0"
	},
	"scene":0,
	"scenes":[
		{
			"name":"Scene",
			"nodes":[
				0
			]
		}
	],
	"nodes":[
		{
			"mesh":0,
			"name":"Plane"
		}
	],
	"materials":[
		{
			"doubleSided":true,
			"name":"Material.002",
			"pbrMetallicRoughness":{
				"baseColorTexture":{
					"index":0
				},
				"metallicFactor":0,
				"roughnessFactor":0.5
			}
		}
	],
	"meshes":[
		{
			"name":"Plane.002",
			"primitives":[
				{
					"attributes":{
						"POSITION":0,
						"NORMAL":1,
						"TEXCOORD_0":2
					},
					"indices":3,
					"material":0
				}
			]
		}
	],
	"textures":[
		{
			"sampler":0,
			"source":0
		}
	],
	"images":[
		{
			"mimeType":"image/png",
			"name":"BlendMap",
			"uri":"BlendMap.png"
		}
	],
	"accessors":[
		{
			"bufferView":0,
			"componentType":5126,
			"count":12321,
			"max":[
				1000.0014038085938,
				221.95693969726562,
				1000.2267456054688
			],
			"min":[
				-1000,
				-76.78822326660156,
				-1000
			],
			"type":"VEC3"
		},
		{
			"bufferView":1,
			"componentType":5126,
			"count":12321,
			"type":"VEC3"
		},
		{
			"bufferView":2,
			"componentType":5126,
			"count":12321,
			"type":"VEC2"
		},
		{
			"bufferView":3,
			"componentType":5123,
			"count":72600,
			"type":"SCALAR"
		}
	],
	"bufferViews":[
		{
			"buffer":0,
			"byteLength":147852,
			"byteOffset":0,
			"target":34962
		},
		{
			"buffer":0,
			"byteLength":147852,
			"byteOffset":147852,
			"target":34962
		},
		{
			"buffer":0,
			"byteLength":98568,
			"byteOffset":295704,
			"target":34962
		},
		{
			"buffer":0,
			"byteLength":145200,
			"byteOffset":394272,
			"target":34963
		}
	],
	"samplers":[
		{
			"magFilter":9729,
			"minFilter":9987
		}
	],
	"buffers":[
		{
			"byteLength":539472,
			"uri":"map_1.bin"
		}
	]
}
